<svg xmlns="http://www.w3.org/2000/svg" xmlns:xlink="http://www.w3.org/1999/xlink" width="64" height="64" viewBox="0 0 64 64">
  <defs>
    <clipPath id="clip-arrow-right">
      <rect width="64" height="64"/>
    </clipPath>
  </defs>
  <g id="arrow-right" clip-path="url(#clip-arrow-right)">
    <path id="path-arrow-right" d="M38.343-69H4a4,4,0,0,0-4,4,4,4,0,0,0,4,4H38.343l-7.314,7.314a4,4,0,0,0,0,5.657,4,4,0,0,0,5.657,0L50.828-62.172a4,4,0,0,0,0-5.657L36.686-81.971a4,4,0,0,0-5.657,0,4,4,0,0,0,0,5.657Z" transform="translate(6 97)" fill-rule="evenodd"/>
  </g>
</svg>
