<svg xmlns="http://www.w3.org/2000/svg" xmlns:xlink="http://www.w3.org/1999/xlink" width="64" height="64" viewBox="0 0 64 64">
  <defs>
    <clipPath id="clip-arrow-left">
      <rect width="64" height="64"/>
    </clipPath>
  </defs>
  <g id="arrow-left" clip-path="url(#clip-arrow-left)">
    <path id="path-arrow-left" d="M133.657-75.142H168a4,4,0,0,0,4-4,4,4,0,0,0-4-4H133.657l7.314-7.314a4,4,0,0,0,0-5.657,4,4,0,0,0-5.657,0L121.172-81.971a4,4,0,0,0,0,5.657l14.142,14.142a4,4,0,0,0,5.657,0,4,4,0,0,0,0-5.657Z" transform="translate(-114 111.142)" fill-rule="evenodd"/>
  </g>
</svg>
