<svg xmlns="http://www.w3.org/2000/svg" xmlns:xlink="http://www.w3.org/1999/xlink" width="64" height="64" viewBox="0 0 64 64">
  <defs>
    <clipPath id="clip-arrow-down">
      <rect width="64" height="64"/>
    </clipPath>
  </defs>
  <g id="arrow-down" clip-path="url(#clip-arrow-down)">
    <path id="path-arrow-down" d="M81-13.657l-7.314-7.314a4,4,0,0,0-5.657,0,4,4,0,0,0,0,5.657L82.172-1.172a4,4,0,0,0,5.657,0l14.143-14.142a4,4,0,0,0,0-5.657,4,4,0,0,0-5.657,0L89-13.657V-48a4,4,0,0,0-4-4,4,4,0,0,0-4,4Z" transform="translate(-53 58)" fill-rule="evenodd"/>
  </g>
</svg>
