<svg xmlns="http://www.w3.org/2000/svg" xmlns:xlink="http://www.w3.org/1999/xlink" width="64" height="64" viewBox="0 0 64 64">
  <defs>
    <clipPath id="clip-arrow-up">
      <rect width="64" height="64"/>
    </clipPath>
  </defs>
  <g id="arrow-up" clip-path="url(#clip-arrow-up)">
    <path id="path-arrow-up" d="M14.141-38.343V-4a4,4,0,0,0,4,4,4,4,0,0,0,4-4V-38.343l7.314,7.314a4,4,0,0,0,5.657,0,4,4,0,0,0,0-5.657L20.97-50.828a4,4,0,0,0-5.657,0L1.171-36.686a4,4,0,0,0,0,5.657,4,4,0,0,0,5.657,0Z" transform="translate(13.859 58)" fill-rule="evenodd"/>
  </g>
</svg>
