<svg xmlns="http://www.w3.org/2000/svg" xmlns:xlink="http://www.w3.org/1999/xlink" width="64" height="64" viewBox="0 0 64 64">
  <defs>
    <clipPath id="clip-behance">
      <rect width="64" height="64"/>
    </clipPath>
  </defs>
  <g id="behance" clip-path="url(#clip-behance)">
    <path id="path-behance" d="M452.766-240.393a5.552,5.552,0,0,0,4.119,1.467,5.426,5.426,0,0,0,3.318-1.03,4.241,4.241,0,0,0,1.688-2.145h5.6a11.031,11.031,0,0,1-4.118,6.276,11.458,11.458,0,0,1-6.7,1.905,12.652,12.652,0,0,1-4.949-.938A10.562,10.562,0,0,1,448-237.481a12.232,12.232,0,0,1-2.34-4.06,15.281,15.281,0,0,1-.831-5.185,15.017,15.017,0,0,1,.858-5.09,11.509,11.509,0,0,1,11.024-7.808,10.56,10.56,0,0,1,5.148,1.219,10.811,10.811,0,0,1,3.614,3.217,13.447,13.447,0,0,1,2.044,4.623,18.23,18.23,0,0,1,.444,5.433H451.275A6.642,6.642,0,0,0,452.766-240.393Zm-21.714-27.825a17.4,17.4,0,0,1,4.178.429,9.329,9.329,0,0,1,3.229,1.381,6.366,6.366,0,0,1,2.074,2.561,9.672,9.672,0,0,1,.741,3.966,7.605,7.605,0,0,1-1.1,4.247,8.064,8.064,0,0,1-3.258,2.789,7.779,7.779,0,0,1,4.393,3.114,9.692,9.692,0,0,1,1.453,5.4,9.991,9.991,0,0,1-.919,4.4,8.573,8.573,0,0,1-2.518,3.061,11.122,11.122,0,0,1-3.646,1.749,15.544,15.544,0,0,1-4.179.562H416v-33.666Zm-.508,27.95a8.274,8.274,0,0,0,1.984-.215,4.761,4.761,0,0,0,1.66-.719,3.562,3.562,0,0,0,1.156-1.343,4.757,4.757,0,0,0,.415-2.186,4.51,4.51,0,0,0-1.393-3.715,5.658,5.658,0,0,0-3.674-1.094h-7.669v9.271ZM460.085-253.2a4.628,4.628,0,0,0-3.585-1.343,5.057,5.057,0,0,0-2.518.563,5.4,5.4,0,0,0-1.6,1.342,5.166,5.166,0,0,0-.858,1.716,7.165,7.165,0,0,0-.3,1.592H461.56a7.012,7.012,0,0,0-1.471-3.867Zm-29.928-1.4a4.883,4.883,0,0,0,3.083-.937,3.669,3.669,0,0,0,1.214-3.061,4.141,4.141,0,0,0-.386-1.931A2.8,2.8,0,0,0,433-261.687a4.024,4.024,0,0,0-1.54-.594,8.649,8.649,0,0,0-1.808-.157h-6.624v7.866h7.135Zm19.738-8.059h12.947v-3.31H449.9Z" transform="translate(-410 283.068)" fill="#202020"/>
  </g>
</svg>
