<svg xmlns="http://www.w3.org/2000/svg" xmlns:xlink="http://www.w3.org/1999/xlink" width="64" height="64" viewBox="0 0 64 64">
  <defs>
    <clipPath id="clip-behance">
      <rect width="64" height="64"/>
    </clipPath>
  </defs>
  <g id="behance" clip-path="url(#clip-behance)">
    <path id="path-behance" d="M461.228-233.988a6.83,6.83,0,0,0,5.067,1.805,6.675,6.675,0,0,0,4.082-1.267,5.217,5.217,0,0,0,2.076-2.639h6.89a13.57,13.57,0,0,1-5.066,7.721,14.1,14.1,0,0,1-8.238,2.344,15.565,15.565,0,0,1-6.088-1.154,12.993,12.993,0,0,1-4.591-3.227,15.047,15.047,0,0,1-2.879-4.995,18.8,18.8,0,0,1-1.022-6.378,18.474,18.474,0,0,1,1.056-6.262,14.158,14.158,0,0,1,13.561-9.6,12.991,12.991,0,0,1,6.333,1.5,13.3,13.3,0,0,1,4.446,3.958,16.542,16.542,0,0,1,2.515,5.687,22.426,22.426,0,0,1,.546,6.684H459.394A8.17,8.17,0,0,0,461.228-233.988Zm-26.712-34.23a21.4,21.4,0,0,1,5.14.528,11.475,11.475,0,0,1,3.972,1.7,7.831,7.831,0,0,1,2.551,3.151,11.9,11.9,0,0,1,.911,4.879,9.356,9.356,0,0,1-1.349,5.224,9.919,9.919,0,0,1-4.008,3.431,9.57,9.57,0,0,1,5.4,3.831,11.923,11.923,0,0,1,1.787,6.647,12.291,12.291,0,0,1-1.13,5.418,10.546,10.546,0,0,1-3.1,3.765,13.682,13.682,0,0,1-4.485,2.151,19.122,19.122,0,0,1-5.141.691H416v-41.415Zm-.625,34.383a10.179,10.179,0,0,0,2.441-.264,5.856,5.856,0,0,0,2.042-.884,4.381,4.381,0,0,0,1.422-1.652,5.852,5.852,0,0,0,.51-2.689,5.548,5.548,0,0,0-1.713-4.57,6.961,6.961,0,0,0-4.52-1.346h-9.434v11.4Zm36.341-15.9a5.693,5.693,0,0,0-4.41-1.652,6.221,6.221,0,0,0-3.1.692,6.643,6.643,0,0,0-1.968,1.651,6.356,6.356,0,0,0-1.056,2.111,8.816,8.816,0,0,0-.364,1.958h12.711a8.625,8.625,0,0,0-1.81-4.757Zm-36.816-1.728a6.007,6.007,0,0,0,3.792-1.153,4.513,4.513,0,0,0,1.493-3.766,5.094,5.094,0,0,0-.475-2.375,3.445,3.445,0,0,0-1.319-1.422,4.951,4.951,0,0,0-1.9-.731,10.641,10.641,0,0,0-2.224-.193h-8.149v9.677h8.777Zm24.281-9.914h15.928v-4.072H457.7Z" transform="translate(-416 279.119)" fill="#202020"/>
  </g>
</svg>
