<svg xmlns="http://www.w3.org/2000/svg" xmlns:xlink="http://www.w3.org/1999/xlink" width="64" height="64" viewBox="0 0 64 64">
  <defs>
    <clipPath id="clip-close">
      <rect width="64" height="64"/>
    </clipPath>
  </defs>
  <g id="close" clip-path="url(#clip-close)">
    <path id="path-close" d="M124.343-26,105.172-6.828a4,4,0,0,0,0,5.657,4,4,0,0,0,5.656,0L130-20.343,149.172-1.172a4,4,0,0,0,5.656,0,4,4,0,0,0,0-5.657L135.657-26l19.171-19.172a4,4,0,0,0,0-5.657,4,4,0,0,0-5.656,0L130-31.657,110.828-50.828a4,4,0,0,0-5.656,0,4,4,0,0,0,0,5.657Z" transform="translate(-98 58)" fill-rule="evenodd"/>
  </g>
</svg>
