<svg xmlns="http://www.w3.org/2000/svg" xmlns:xlink="http://www.w3.org/1999/xlink" width="64" height="64" viewBox="0 0 64 64">
  <defs>
    <clipPath id="clip-code">
      <rect width="64" height="64"/>
    </clipPath>
  </defs>
  <g id="code" clip-path="url(#clip-code)">
    <path id="path-cede" d="M293-53.592,269.8-13.408a3,3,0,0,0,1.1,4.1,3,3,0,0,0,4.1-1.1l23.2-40.184a3,3,0,0,0-1.1-4.1A3,3,0,0,0,293-53.592ZM299.839-41.2l8.918,8.918L299.279-22.8a3,3,0,0,0,0,4.243,3,3,0,0,0,4.242,0l11.6-11.6a3,3,0,0,0,0-4.243L304.082-45.441a3,3,0,0,0-4.243,0A3,3,0,0,0,299.839-41.2Zm-35.921-4.243L252.879-34.4a3,3,0,0,0,0,4.243l11.6,11.6a3,3,0,0,0,4.242,0,3,3,0,0,0,0-4.243l-9.478-9.479,8.918-8.918a3,3,0,0,0,0-4.243A3,3,0,0,0,263.918-45.441Z" transform="translate(-252 64)" fill="#202020" fill-rule="evenodd"/>
  </g>
</svg>
