<svg xmlns="http://www.w3.org/2000/svg" xmlns:xlink="http://www.w3.org/1999/xlink" width="64" height="64" viewBox="0 0 64 64">
  <defs>
    <clipPath id="clip-code">
      <rect width="64" height="64"/>
    </clipPath>
  </defs>
  <g id="code" clip-path="url(#clip-code)">
    <path id="path-code" d="M754.795-44.422,745.478-9.649a4,4,0,0,0,2.828,4.9,4,4,0,0,0,4.9-2.829l9.317-34.773a4,4,0,0,0-2.828-4.9A4,4,0,0,0,754.795-44.422Zm-17.058,6.811-8.565,8.565a4,4,0,0,0,0,5.657l9,9a4,4,0,0,0,5.656,0,4,4,0,0,0,0-5.657l-6.171-6.171,5.737-5.737a4,4,0,0,0,0-5.657A4,4,0,0,0,737.737-37.611Zm32.526,23.222,8.565-8.565a4,4,0,0,0,0-5.657l-9-9a4,4,0,0,0-5.656,0,4,4,0,0,0,0,5.657l6.171,6.171-5.737,5.737a4,4,0,0,0,0,5.657A4,4,0,0,0,770.263-14.389Z" transform="translate(-722 58)" fill-rule="evenodd"/>
  </g>
</svg>
