<svg xmlns="http://www.w3.org/2000/svg" xmlns:xlink="http://www.w3.org/1999/xlink" width="64" height="64" viewBox="0 0 64 64">
  <defs>
    <clipPath id="clip-dribbble">
      <rect width="64" height="64"/>
    </clipPath>
  </defs>
  <g id="dribbble" clip-path="url(#clip-dribbble)">
    <path id="path-dribbble" d="M26-279.12a26.008,26.008,0,0,0-26,26,26.007,26.007,0,0,0,26,26,26.026,26.026,0,0,0,26-26A26.026,26.026,0,0,0,26-279.12Zm17.173,11.985a22.1,22.1,0,0,1,5.02,13.818,52.45,52.45,0,0,0-15.453-.7c-.169-.367-.31-.762-.479-1.157-.451-1.071-.959-2.171-1.466-3.214C38.972-261.721,42.694-266.514,43.173-267.135ZM26-275.285A22.158,22.158,0,0,1,40.72-269.7c-.395.564-3.751,5.047-11.647,8.009a119.761,119.761,0,0,0-8.291-13A22.569,22.569,0,0,1,26-275.285ZM16.553-273.2a140.24,140.24,0,0,1,8.234,12.831,83.282,83.282,0,0,1-20.529,2.708A22.311,22.311,0,0,1,16.553-273.2ZM3.779-253.091v-.677a81.142,81.142,0,0,0,22.813-3.158c.649,1.24,1.241,2.509,1.8,3.778-.282.085-.592.169-.874.254C16.074-249.2,9.983-239.1,9.475-238.259A22.153,22.153,0,0,1,3.779-253.091ZM26-230.9a22.051,22.051,0,0,1-13.62-4.681c.395-.818,4.907-9.5,17.427-13.874.056-.028.085-.028.141-.057a91.8,91.8,0,0,1,4.737,16.835A21.846,21.846,0,0,1,26-230.9Zm12.38-3.807a95.561,95.561,0,0,0-4.315-15.82,32.43,32.43,0,0,1,13.818.959A22.016,22.016,0,0,1,38.38-234.706Z" transform="translate(6 285.12)" fill="#202020" fill-rule="evenodd"/>
  </g>
</svg>
