<svg xmlns="http://www.w3.org/2000/svg" xmlns:xlink="http://www.w3.org/1999/xlink" width="64" height="64" viewBox="0 0 64 64">
  <defs>
    <clipPath id="clip-dribbble">
      <rect width="64" height="64"/>
    </clipPath>
  </defs>
  <g id="dribbble" clip-path="url(#clip-dribbble)">
    <path id="path-dribbble" d="M31.984-279.12A31.994,31.994,0,0,0,0-247.135a31.993,31.993,0,0,0,31.984,31.984,32.016,32.016,0,0,0,31.984-31.984A32.016,32.016,0,0,0,31.984-279.12Zm21.126,14.744a27.192,27.192,0,0,1,6.175,17,64.52,64.52,0,0,0-19.01-.867c-.208-.451-.382-.937-.59-1.423-.555-1.318-1.179-2.671-1.8-3.954C47.942-257.716,52.521-263.613,53.111-264.376ZM31.984-274.4a27.258,27.258,0,0,1,18.108,6.869c-.486.694-4.614,6.209-14.327,9.852a147.323,147.323,0,0,0-10.2-15.992A27.765,27.765,0,0,1,31.984-274.4Zm-11.621,2.567a172.516,172.516,0,0,1,10.129,15.784A102.451,102.451,0,0,1,5.238-252.72,27.447,27.447,0,0,1,20.363-271.835ZM4.648-247.1v-.833a99.818,99.818,0,0,0,28.064-3.885c.8,1.526,1.527,3.087,2.22,4.648-.347.1-.729.208-1.075.312-14.084,4.545-21.577,16.964-22.2,18A27.252,27.252,0,0,1,4.648-247.1Zm27.336,27.3a27.126,27.126,0,0,1-16.755-5.758c.486-1.006,6.036-11.691,21.438-17.067.069-.035.1-.035.174-.07a112.927,112.927,0,0,1,5.828,20.71A26.874,26.874,0,0,1,31.984-219.8Zm15.229-4.683a117.555,117.555,0,0,0-5.308-19.461,39.9,39.9,0,0,1,17,1.18A27.083,27.083,0,0,1,47.213-224.483Z" transform="translate(0 279.151)" fill="#202020" fill-rule="evenodd"/>
  </g>
</svg>
