<svg xmlns="http://www.w3.org/2000/svg" xmlns:xlink="http://www.w3.org/1999/xlink" width="64" height="64" viewBox="0 0 64 64">
  <defs>
    <clipPath id="clip-github">
      <rect width="64" height="64"/>
    </clipPath>
  </defs>
  <g id="github" clip-path="url(#clip-github)">
    <path id="path-github" d="M361.969-279.12a26,26,0,0,0-26,26,26.008,26.008,0,0,0,17.78,24.672c1.3.24,1.777-.565,1.777-1.251,0-.619-.024-2.668-.036-4.841-7.233,1.573-8.76-3.067-8.76-3.067-1.183-3-2.887-3.8-2.887-3.8-2.359-1.614.178-1.581.178-1.581a5.466,5.466,0,0,1,3.985,2.68c2.319,3.974,6.082,2.825,7.566,2.16a5.541,5.541,0,0,1,1.651-3.477c-5.775-.657-11.845-2.887-11.845-12.849a10.063,10.063,0,0,1,2.679-6.979,9.341,9.341,0,0,1,.252-6.88s2.183-.7,7.152,2.666a24.952,24.952,0,0,1,6.508-.876,25.012,25.012,0,0,1,6.513.876c4.963-3.365,7.143-2.666,7.143-2.666a9.326,9.326,0,0,1,.255,6.88,10.043,10.043,0,0,1,2.676,6.979c0,9.986-6.082,12.184-11.871,12.829a6.216,6.216,0,0,1,1.763,4.815c0,3.478-.029,6.278-.029,7.135,0,.692.467,1.5,1.785,1.248a26,26,0,0,0,17.766-24.668A26,26,0,0,0,361.969-279.12Zm-8.6,42.445c.007.214-.243.392-.552.4s-.563-.167-.566-.377.245-.392.555-.4S353.365-236.888,353.365-236.675Zm1.98-.337c.037.209-.178.424-.485.481s-.581-.074-.62-.281.181-.429.483-.485S355.3-237.225,355.345-237.012Zm-4.108.181c-.063.2-.355.3-.65.21s-.487-.327-.427-.533.355-.3.652-.209S351.3-237.038,351.237-236.831Zm-1.938-.84c-.142.158-.446.115-.668-.1a.5.5,0,0,1-.149-.664c.145-.158.45-.113.674.1S349.451-237.826,349.3-237.671Zm-1.4-1.446c-.159.111-.42.007-.582-.224s-.159-.509,0-.62.418-.011.582.219S348.057-239.231,347.895-239.117Zm-1.025-1.5c-.124.115-.366.062-.531-.12a.4.4,0,0,1-.076-.54c.128-.115.363-.061.533.12S347-240.732,346.87-240.615Zm-1.053-1.175c-.058.13-.261.168-.446.08s-.294-.262-.233-.391.259-.17.448-.081S345.882-241.919,345.816-241.79Z" transform="translate(-329.969 285.12)" fill="#202020" fill-rule="evenodd"/>
  </g>
</svg>
