<svg xmlns="http://www.w3.org/2000/svg" xmlns:xlink="http://www.w3.org/1999/xlink" width="64" height="64" viewBox="0 0 64 64">
  <defs>
    <clipPath id="clip-github">
      <rect width="64" height="64"/>
    </clipPath>
  </defs>
  <g id="github" clip-path="url(#clip-github)">
    <path id="path-github" d="M367.969-279.12a32,32,0,0,0-32,32,32.009,32.009,0,0,0,21.883,30.365c1.6.3,2.187-.695,2.187-1.54,0-.762-.03-3.284-.044-5.958-8.9,1.936-10.781-3.775-10.781-3.775-1.456-3.7-3.553-4.682-3.553-4.682-2.9-1.986.219-1.946.219-1.946,3.213.226,4.9,3.3,4.9,3.3,2.854,4.891,7.486,3.477,9.312,2.659a6.82,6.82,0,0,1,2.032-4.279c-7.108-.809-14.579-3.553-14.579-15.814a12.386,12.386,0,0,1,3.3-8.59,11.5,11.5,0,0,1,.31-8.468s2.687-.86,8.8,3.281a30.71,30.71,0,0,1,8.01-1.078,30.785,30.785,0,0,1,8.016,1.078c6.108-4.141,8.791-3.281,8.791-3.281a11.478,11.478,0,0,1,.314,8.468,12.36,12.36,0,0,1,3.293,8.59c0,12.291-7.486,15-14.611,15.789,1.147.993,2.17,2.94,2.17,5.926,0,4.281-.036,7.727-.036,8.781,0,.852.575,1.85,2.2,1.536a32,32,0,0,0,21.866-30.361A32,32,0,0,0,367.969-279.12Zm-10.59,52.24c.009.264-.3.482-.679.487s-.693-.205-.7-.464.3-.483.683-.49S357.379-227.142,357.379-226.88Zm2.437-.415c.045.257-.219.522-.6.592s-.715-.091-.763-.346.223-.528.594-.6S359.767-227.557,359.816-227.295Zm-5.056.223c-.078.251-.437.364-.8.258s-.6-.4-.526-.656.437-.371.8-.257S354.835-227.327,354.76-227.072Zm-2.385-1.034c-.175.194-.549.142-.822-.123a.615.615,0,0,1-.183-.817c.179-.194.554-.139.83.123S352.562-228.3,352.375-228.106Zm-1.728-1.78c-.2.136-.517.009-.716-.276s-.2-.626.005-.763.515-.013.716.269S350.847-230.026,350.647-229.886Zm-1.262-1.843c-.152.141-.451.076-.653-.148a.488.488,0,0,1-.094-.665c.157-.141.447-.075.656.148S349.545-231.873,349.385-231.729Zm-1.3-1.446c-.071.16-.321.207-.549.1s-.362-.322-.287-.481.319-.209.551-.1S348.169-233.334,348.089-233.175Z" transform="translate(-335.969 279.12)" fill="#202020" fill-rule="evenodd"/>
  </g>
</svg>
