<svg xmlns="http://www.w3.org/2000/svg" xmlns:xlink="http://www.w3.org/1999/xlink" width="64" height="64" viewBox="0 0 64 64">
  <defs>
    <clipPath id="clip-instagram">
      <rect width="64" height="64"/>
    </clipPath>
  </defs>
  <g id="instagram" clip-path="url(#clip-instagram)">
    <path id="path-instagram" d="M32,5.766c8.544,0,9.556.033,12.931.186a17.712,17.712,0,0,1,5.942,1.1,9.916,9.916,0,0,1,3.679,2.394,9.914,9.914,0,0,1,2.394,3.679,17.708,17.708,0,0,1,1.1,5.942c.154,3.374.186,4.386.186,12.931s-.033,9.556-.186,12.931a17.708,17.708,0,0,1-1.1,5.942,10.6,10.6,0,0,1-6.073,6.073,17.708,17.708,0,0,1-5.942,1.1c-3.374.154-4.386.186-12.931.186s-9.557-.033-12.931-.186a17.706,17.706,0,0,1-5.942-1.1,9.913,9.913,0,0,1-3.68-2.394,9.914,9.914,0,0,1-2.394-3.679,17.708,17.708,0,0,1-1.1-5.942C5.8,41.556,5.766,40.544,5.766,32s.033-9.556.186-12.931a17.708,17.708,0,0,1,1.1-5.942A9.914,9.914,0,0,1,9.448,9.448a9.915,9.915,0,0,1,3.68-2.394,17.71,17.71,0,0,1,5.942-1.1C22.444,5.8,23.456,5.766,32,5.766M32,0c-8.691,0-9.78.037-13.193.193A23.488,23.488,0,0,0,11.039,1.68,15.686,15.686,0,0,0,5.371,5.371,15.686,15.686,0,0,0,1.68,11.039,23.488,23.488,0,0,0,.192,18.807C.037,22.22,0,23.309,0,32s.037,9.78.192,13.193A23.488,23.488,0,0,0,1.68,52.961a15.687,15.687,0,0,0,3.691,5.668,15.686,15.686,0,0,0,5.668,3.691,23.488,23.488,0,0,0,7.768,1.487C22.22,63.963,23.309,64,32,64s9.78-.037,13.193-.192a23.489,23.489,0,0,0,7.768-1.487,16.363,16.363,0,0,0,9.359-9.359,23.488,23.488,0,0,0,1.487-7.768C63.963,41.781,64,40.691,64,32s-.037-9.78-.193-13.193a23.488,23.488,0,0,0-1.487-7.768,15.686,15.686,0,0,0-3.691-5.668A15.686,15.686,0,0,0,52.961,1.68,23.488,23.488,0,0,0,45.193.193C41.78.037,40.691,0,32,0Zm0,15.568A16.432,16.432,0,1,0,48.432,32,16.433,16.433,0,0,0,32,15.568Zm0,27.1A10.667,10.667,0,1,1,42.667,32,10.667,10.667,0,0,1,32,42.667ZM52.922,14.918a3.84,3.84,0,1,1-3.84-3.84A3.84,3.84,0,0,1,52.922,14.918Z" fill="#202020"/>
  </g>
</svg>
