<svg xmlns="http://www.w3.org/2000/svg" xmlns:xlink="http://www.w3.org/1999/xlink" width="64" height="64" viewBox="0 0 64 64">
  <defs>
    <clipPath id="clip-instagram">
      <rect width="64" height="64"/>
    </clipPath>
  </defs>
  <g id="instagram" clip-path="url(#clip-instagram)">
    <path id="path-instagram" d="M26,4.685c6.942,0,7.765.026,10.506.152a14.391,14.391,0,0,1,4.828.9,8.057,8.057,0,0,1,2.989,1.945,8.055,8.055,0,0,1,1.945,2.989,14.387,14.387,0,0,1,.9,4.828c.125,2.742.152,3.564.152,10.506s-.026,7.765-.152,10.506a14.388,14.388,0,0,1-.9,4.828,8.609,8.609,0,0,1-4.934,4.934,14.388,14.388,0,0,1-4.828.9c-2.741.125-3.563.152-10.506.152s-7.765-.026-10.506-.152a14.386,14.386,0,0,1-4.828-.9,8.055,8.055,0,0,1-2.99-1.945,8.055,8.055,0,0,1-1.945-2.989,14.387,14.387,0,0,1-.9-4.828C4.711,33.765,4.685,32.942,4.685,26s.026-7.765.152-10.506a14.388,14.388,0,0,1,.9-4.828A8.055,8.055,0,0,1,7.676,7.676a8.056,8.056,0,0,1,2.99-1.945,14.389,14.389,0,0,1,4.828-.9c2.742-.125,3.564-.152,10.506-.152M26,0c-7.061,0-7.947.03-10.72.156A19.084,19.084,0,0,0,8.969,1.365a12.745,12.745,0,0,0-4.605,3,12.745,12.745,0,0,0-3,4.605A19.084,19.084,0,0,0,.156,15.28C.03,18.053,0,18.939,0,26s.03,7.947.156,10.72a19.084,19.084,0,0,0,1.209,6.311,12.745,12.745,0,0,0,3,4.605,12.745,12.745,0,0,0,4.605,3,19.084,19.084,0,0,0,6.311,1.209C18.053,51.97,18.939,52,26,52s7.947-.03,10.72-.156a19.084,19.084,0,0,0,6.311-1.209,13.3,13.3,0,0,0,7.6-7.6,19.084,19.084,0,0,0,1.209-6.311C51.97,33.947,52,33.061,52,26s-.03-7.947-.156-10.72a19.084,19.084,0,0,0-1.209-6.311,12.744,12.744,0,0,0-3-4.605,12.745,12.745,0,0,0-4.605-3A19.084,19.084,0,0,0,36.72.156C33.947.03,33.061,0,26,0Zm0,12.649A13.351,13.351,0,1,0,39.351,26,13.351,13.351,0,0,0,26,12.649Zm0,22.018A8.667,8.667,0,1,1,34.667,26,8.667,8.667,0,0,1,26,34.667ZM43,12.121A3.12,3.12,0,1,1,39.879,9,3.12,3.12,0,0,1,43,12.121Z" transform="translate(6 6)" fill="#202020"/>
  </g>
</svg>
