<svg xmlns="http://www.w3.org/2000/svg" xmlns:xlink="http://www.w3.org/1999/xlink" width="64" height="64" viewBox="0 0 64 64">
  <defs>
    <clipPath id="clip-link">
      <rect width="64" height="64"/>
    </clipPath>
  </defs>
  <g id="link" clip-path="url(#clip-link)">
    <path id="path-link" d="M610-65H588a3,3,0,0,0-3,3V-4a3,3,0,0,0,3,3h58a3,3,0,0,0,3-3V-26a3,3,0,0,0-3-3,3,3,0,0,0-3,3V-7H591V-59h19a3,3,0,0,0,3-3A3,3,0,0,0,610-65Zm36.04,0H622a3,3,0,0,0-3,3,3,3,0,0,0,3,3h16.757l-30.4,30.4a3,3,0,0,0,0,4.243,3,3,0,0,0,4.243,0l30.4-30.4V-38a3,3,0,0,0,3,3l.154,0A3,3,0,0,0,649-38V-62l-.011-.25-.064-.417-.131-.425-.185-.389-.242-.362-.143-.17-.207-.207-.3-.238-.365-.219-.418-.173-.432-.107L646.066-65Z" transform="translate(-585 65)" fill="#202020" fill-rule="evenodd"/>
  </g>
</svg>
