<svg xmlns="http://www.w3.org/2000/svg" xmlns:xlink="http://www.w3.org/1999/xlink" width="64" height="64" viewBox="0 0 64 64">
  <defs>
    <clipPath id="clip-link">
      <rect width="64" height="64"/>
    </clipPath>
  </defs>
  <g id="link" clip-path="url(#clip-link)">
    <path id="path-link" d="M432-52H420a4,4,0,0,0-4,4V-4a4,4,0,0,0,4,4h44a4,4,0,0,0,4-4V-16a4,4,0,0,0-4-4,4,4,0,0,0-4,4v8H424V-44h8a4,4,0,0,0,4-4A4,4,0,0,0,432-52Zm32.053,0H448a4,4,0,0,0-4,4,4,4,0,0,0,4,4h6.343L441.172-30.828a4,4,0,0,0,0,5.657,4,4,0,0,0,5.656,0L460-38.343V-32a4,4,0,0,0,4,4l.206-.005A4,4,0,0,0,468-32V-48l-.015-.333a3.742,3.742,0,0,0-.082-.543L467.9-48.9a3.8,3.8,0,0,0-.166-.541l0-.011a3.87,3.87,0,0,0-.243-.51l-.012-.022a3.952,3.952,0,0,0-.3-.451l-.205-.246-.275-.276-.145-.125-.254-.192a3.9,3.9,0,0,0-.477-.287l-.016-.008a3.963,3.963,0,0,0-.549-.227h0a3.977,3.977,0,0,0-.555-.139l-.344-.045Z" transform="translate(-410 58)" fill-rule="evenodd"/>
  </g>
</svg>
