<svg xmlns="http://www.w3.org/2000/svg" xmlns:xlink="http://www.w3.org/1999/xlink" width="64" height="64" viewBox="0 0 64 64">
  <defs>
    <clipPath id="clip-menu">
      <rect width="64" height="64"/>
    </clipPath>
  </defs>
  <g id="menu" clip-path="url(#clip-menu)">
    <path id="path-menu" d="M4-8H48a4,4,0,0,0,4-4,4,4,0,0,0-4-4H4a4,4,0,0,0-4,4A4,4,0,0,0,4-8ZM4-22H48a4,4,0,0,0,4-4,4,4,0,0,0-4-4H4a4,4,0,0,0-4,4A4,4,0,0,0,4-22ZM4-36H48a4,4,0,0,0,4-4,4,4,0,0,0-4-4H4a4,4,0,0,0-4,4A4,4,0,0,0,4-36Z" transform="translate(6 58)" fill-rule="evenodd"/>
  </g>
</svg>
