<svg xmlns="http://www.w3.org/2000/svg" xmlns:xlink="http://www.w3.org/1999/xlink" width="64" height="64" viewBox="0 0 64 64">
  <defs>
    <clipPath id="clip-moon">
      <rect width="64" height="64"/>
    </clipPath>
  </defs>
  <g id="moon" clip-path="url(#clip-moon)">
    <path id="path-moon" d="M656.28-51.207a4,4,0,0,0-3.81,1.081,4,4,0,0,0-1.013,3.828A16.755,16.755,0,0,1,652-42a18.009,18.009,0,0,1-18,18,16.751,16.751,0,0,1-4.3-.543,4,4,0,0,0-3.828,1.013,4,4,0,0,0-1.081,3.81A25.972,25.972,0,0,0,650,0a26.012,26.012,0,0,0,26-26A25.972,25.972,0,0,0,656.28-51.207Zm3.7,10.239A17.951,17.951,0,0,1,668-26,18.009,18.009,0,0,1,650-8a17.951,17.951,0,0,1-14.968-8.022A26.01,26.01,0,0,0,659.978-40.968Z" transform="translate(-618 58)" fill-rule="evenodd"/>
  </g>
</svg>
