<svg xmlns="http://www.w3.org/2000/svg" xmlns:xlink="http://www.w3.org/1999/xlink" width="64" height="64" viewBox="0 0 64 64">
  <defs>
    <clipPath id="clip-moon">
      <rect width="64" height="64"/>
    </clipPath>
  </defs>
  <g id="moon" clip-path="url(#clip-moon)">
    <path id="path-moon" d="M460.993-62.653a3,3,0,0,0-3.251.668,3,3,0,0,0-.646,3.255A25.521,25.521,0,0,1,459-49a26.012,26.012,0,0,1-26,26,25.523,25.523,0,0,1-9.73-1.9,3,3,0,0,0-3.255.646,3,3,0,0,0-.668,3.251A31.982,31.982,0,0,0,449-1a32.015,32.015,0,0,0,32-32A31.98,31.98,0,0,0,460.993-62.653Zm3.655,8.9A25.936,25.936,0,0,1,475-33,26.012,26.012,0,0,1,449-7a25.936,25.936,0,0,1-20.75-10.352A32,32,0,0,0,433-17a32.015,32.015,0,0,0,32-32,32.05,32.05,0,0,0-.352-4.749Z" transform="translate(-417 65)" fill="#202020" fill-rule="evenodd"/>
  </g>
</svg>
