<svg xmlns="http://www.w3.org/2000/svg" xmlns:xlink="http://www.w3.org/1999/xlink" width="64" height="64" viewBox="0 0 64 64">
  <defs>
    <clipPath id="clip-note">
      <rect width="64" height="64"/>
    </clipPath>
  </defs>
  <g id="note" clip-path="url(#clip-note)">
    <path id="path-note" d="M111.966-250.94h-7.549a4.84,4.84,0,0,1-1.647-.183,3.188,3.188,0,0,1-2.195-3.064,3.189,3.189,0,0,1,2.195-3.065,4.815,4.815,0,0,1,1.647-.183h4.895v-4.895a4.8,4.8,0,0,1,.184-1.647,3.16,3.16,0,0,1,3.064-2.2,3.19,3.19,0,0,1,3.066,2.2,4.826,4.826,0,0,1,.183,1.647v7.548a6.217,6.217,0,0,1-.092,1.326,3.341,3.341,0,0,1-2.424,2.425A6.292,6.292,0,0,1,111.966-250.94Zm24.246,27.723H95.726v-35.66a1.591,1.591,0,0,1,.48-1.166l10.5-10.5a1.586,1.586,0,0,1,1.166-.48h28.34ZM89.6-264.869a6.383,6.383,0,0,0-1.922,3.934c-.023.252-.045.618-.045.984v40.325a8.677,8.677,0,0,0,.045,1.007,4.077,4.077,0,0,0,3.454,3.453,8.522,8.522,0,0,0,1.007.046H139.8a8.529,8.529,0,0,0,1.007-.046,4.075,4.075,0,0,0,3.453-3.453,8.375,8.375,0,0,0,.045-1.007v-54.987a8.375,8.375,0,0,0-.045-1.007,4.075,4.075,0,0,0-3.453-3.453,8.457,8.457,0,0,0-1.007-.047H106.8c-.366,0-.733.024-.983.047a6.364,6.364,0,0,0-3.935,1.921Z" transform="translate(-83.968 279.12)" fill="#202020" fill-rule="evenodd"/>
  </g>
</svg>
