<svg xmlns="http://www.w3.org/2000/svg" xmlns:xlink="http://www.w3.org/1999/xlink" width="64" height="64" viewBox="0 0 64 64">
  <defs>
    <clipPath id="clip-note">
      <rect width="64" height="64"/>
    </clipPath>
  </defs>
  <g id="note" clip-path="url(#clip-note)">
    <path id="path-note" d="M107.4-256.224h-6.134a3.932,3.932,0,0,1-1.338-.149,2.591,2.591,0,0,1-1.783-2.49,2.591,2.591,0,0,1,1.783-2.49,3.912,3.912,0,0,1,1.338-.149h3.977v-3.977a3.9,3.9,0,0,1,.15-1.338,2.567,2.567,0,0,1,2.49-1.785,2.592,2.592,0,0,1,2.491,1.785,3.921,3.921,0,0,1,.149,1.338v6.133a5.051,5.051,0,0,1-.075,1.077,2.715,2.715,0,0,1-1.97,1.97A5.112,5.112,0,0,1,107.4-256.224ZM127.1-233.7H94.208v-28.974a1.293,1.293,0,0,1,.39-.947l8.531-8.53a1.289,1.289,0,0,1,.947-.39H127.1ZM89.228-267.541a5.187,5.187,0,0,0-1.562,3.2c-.018.2-.037.5-.037.8v32.764a7.05,7.05,0,0,0,.037.818,3.312,3.312,0,0,0,2.807,2.806,6.926,6.926,0,0,0,.818.037h38.73a6.932,6.932,0,0,0,.818-.037,3.311,3.311,0,0,0,2.806-2.806,6.8,6.8,0,0,0,.037-.818v-44.677a6.8,6.8,0,0,0-.037-.818,3.311,3.311,0,0,0-2.806-2.806,6.876,6.876,0,0,0-.818-.038H103.2c-.3,0-.6.02-.8.038a5.171,5.171,0,0,0-3.2,1.561Z" transform="translate(-78.655 285.12)" fill="#202020" fill-rule="evenodd"/>
  </g>
</svg>
