<svg xmlns="http://www.w3.org/2000/svg" xmlns:xlink="http://www.w3.org/1999/xlink" width="64" height="64" viewBox="0 0 64 64">
  <defs>
    <clipPath id="clip-qiita">
      <rect width="64" height="64"/>
    </clipPath>
  </defs>
  <g id="qiita" clip-path="url(#clip-qiita)">
    <path id="path-qiita" d="M215.493-230.648c-3.452,3.682-8.142,4.893-13.82,5.467-11.5,1.163-21.455-3.971-22.661-16.8a25.11,25.11,0,0,1,3.148-14.885l-1.424-5.6a1.383,1.383,0,0,1,1.615-1.67l4.921,1.194a19.348,19.348,0,0,1,10.372-4.368,19.018,19.018,0,0,1,9.523,1.5l4.625-2.8a1.366,1.366,0,0,1,2.056,1.11l.267,6.6a24.7,24.7,0,0,1,6.528,14.71,18.032,18.032,0,0,1-.9,8.207,2.845,2.845,0,0,0,.207,3.015c.713.909,1.843,2.673,3.1,2.378a7.244,7.244,0,0,1,5.179.457,31.861,31.861,0,0,0,3.739-15.019,32,32,0,0,0-32-32,32,32,0,0,0-32,32,32,32,0,0,0,32,32,31.9,31.9,0,0,0,23.066-9.822,7.547,7.547,0,0,1-3.058-1.211C218.072-227.454,216.381-228.654,215.493-230.648Zm-2.955-23.462,2.989-.366-.042-.538-3.066.376q-.2-.582-.445-1.136l3.378-1.078-.106-.676-3.592,1.244a13.27,13.27,0,0,0-13.519-7.522,13.859,13.859,0,0,0-11.982,10.262l-3.514-.532-.037.69,3.459.375a10.249,10.249,0,0,0-.229,1.046l-3.018.241.027.54,2.942-.235a10.674,10.674,0,0,0-.089,1.218l-2.687,1.1.132.666,2.559-1.2c.006.357.021.547.055.909.711,7.565,7.031,9.061,14.581,8.3s13.471-3.5,12.76-11.063c-.034-.363-.086-.552-.147-.9l2.772.6.064-.61-2.907-.553A10.634,10.634,0,0,0,212.538-254.11Z" transform="translate(-167.969 279.151)" fill="#202020"/>
  </g>
</svg>
