<svg xmlns="http://www.w3.org/2000/svg" xmlns:xlink="http://www.w3.org/1999/xlink" width="64" height="64" viewBox="0 0 64 64">
  <defs>
    <clipPath id="clip-qiita">
      <rect width="64" height="64"/>
    </clipPath>
  </defs>
  <g id="qiita" clip-path="url(#clip-qiita)">
    <g id="path-qiita" transform="translate(6 6)">
      <path id="path-qiita-2" data-name="path-qiita" d="M206.582-239.742c-2.8,2.992-6.615,3.976-11.229,4.442-9.34.945-17.432-3.226-18.412-13.649a20.4,20.4,0,0,1,2.558-12.094l-1.157-4.552a1.124,1.124,0,0,1,1.312-1.357l4,.97a15.72,15.72,0,0,1,8.427-3.549,15.452,15.452,0,0,1,7.737,1.219l3.758-2.273a1.11,1.11,0,0,1,1.671.9l.217,5.363a20.065,20.065,0,0,1,5.3,11.952,14.651,14.651,0,0,1-.735,6.668,2.311,2.311,0,0,0,.168,2.45c.579.739,1.5,2.172,2.523,1.932a5.885,5.885,0,0,1,4.208.371,25.887,25.887,0,0,0,3.038-12.2,26,26,0,0,0-26-26,26,26,0,0,0-26,26,26,26,0,0,0,26,26,25.923,25.923,0,0,0,18.741-7.98,6.132,6.132,0,0,1-2.485-.984A8.993,8.993,0,0,1,206.582-239.742Zm-2.4-19.063,2.429-.3-.034-.437-2.491.306q-.161-.473-.362-.923l2.745-.876-.086-.549-2.918,1.011a10.782,10.782,0,0,0-10.984-6.112,11.26,11.26,0,0,0-9.735,8.338l-2.855-.432-.03.561,2.81.3a8.334,8.334,0,0,0-.186.85l-2.452.2.022.439,2.39-.191a8.671,8.671,0,0,0-.072.99l-2.183.893.107.541,2.079-.973c0,.29.017.444.045.739.578,6.147,5.713,7.362,11.847,6.742s10.945-2.842,10.367-8.989c-.028-.295-.07-.448-.119-.735l2.252.489.052-.5-2.362-.449A8.642,8.642,0,0,0,204.181-258.805Z" transform="translate(-167.969 279.151)" fill="#202020"/>
    </g>
  </g>
</svg>
