<svg xmlns="http://www.w3.org/2000/svg" xmlns:xlink="http://www.w3.org/1999/xlink" width="64" height="64" viewBox="0 0 64 64">
  <defs>
    <clipPath id="clip-react">
      <rect width="64" height="64"/>
    </clipPath>
  </defs>
  <g id="react" clip-path="url(#clip-react)">
    <path id="path-react" d="M36.606-436.909h-.039c-2.915,0-6.731,2.077-10.589,5.681-3.858-3.583-7.674-5.639-10.589-5.639a4.736,4.736,0,0,0-2.4.6c-2.978,1.717-3.646,7.07-2.109,13.79C4.293-420.437,0-417.183,0-413.749s4.314,6.709,10.928,8.734c-1.526,6.741-.848,12.1,2.141,13.821a4.659,4.659,0,0,0,2.385.594c2.915,0,6.731-2.077,10.589-5.681,3.858,3.583,7.674,5.639,10.589,5.639a4.726,4.726,0,0,0,2.4-.594c2.978-1.717,3.646-7.07,2.109-13.79C47.707-407.05,52-410.315,52-413.749s-4.314-6.709-10.928-8.734c1.526-6.741.848-12.1-2.141-13.821A4.624,4.624,0,0,0,36.606-436.909Zm-22.372,43.67c-1.442-.827-2.067-3.975-1.579-8.024.117-1,.307-2.046.541-3.116a51.367,51.367,0,0,0,6.731,1.155,51.693,51.693,0,0,0,4.409,5.3c-3.455,3.212-6.7,4.971-8.9,4.971A2.53,2.53,0,0,1,14.235-393.239Zm25.141-8.077c.5,4.049-.117,7.2-1.547,8.034a2.359,2.359,0,0,1-1.219.276c-2.194,0-5.448-1.749-8.9-4.939a50.07,50.07,0,0,0,4.378-5.289,49.489,49.489,0,0,0,6.741-1.166A29.672,29.672,0,0,1,39.376-401.316ZM26.021-399.6a43.711,43.711,0,0,1-2.947-3.392c.954.042,1.929.074,2.915.074s1.982-.021,2.947-.074A41.365,41.365,0,0,1,26.021-399.6Zm7.324-9.932c-.827,1.431-1.675,2.788-2.554,4.049-1.579.138-3.18.212-4.791.212s-3.2-.074-4.77-.2q-1.32-1.892-2.565-4.028-1.208-2.083-2.2-4.219c.657-1.42,1.4-2.841,2.194-4.229.827-1.431,1.675-2.788,2.554-4.049,1.579-.138,3.18-.212,4.791-.212s3.2.074,4.77.2q1.32,1.892,2.565,4.028,1.208,2.083,2.2,4.219C34.872-412.339,34.14-410.919,33.345-409.531Zm-15.21,3.689c-1.505-.223-2.957-.5-4.346-.837.392-1.367.88-2.777,1.431-4.187.435.848.89,1.7,1.389,2.544S17.616-406.648,18.135-405.842Zm18.634-5.066c.572,1.42,1.06,2.841,1.463,4.219-1.389.339-2.851.625-4.367.848.519-.816,1.039-1.654,1.526-2.512S36.334-410.06,36.769-410.908ZM8.532-408.386c-3.752-1.6-6.179-3.7-6.179-5.363s2.427-3.773,6.179-5.363c.912-.392,1.908-.742,2.936-1.071a50.908,50.908,0,0,0,2.385,6.455A50.183,50.183,0,0,0,11.5-407.3C10.451-407.633,9.455-407.994,8.532-408.386Zm34.925,0c-.912.392-1.908.742-2.936,1.07a50.909,50.909,0,0,0-2.385-6.455,50.184,50.184,0,0,0,2.353-6.423c1.049.329,2.046.689,2.978,1.081,3.752,1.6,6.179,3.7,6.179,5.363S47.209-409.976,43.457-408.386ZM25.989-418.593a4.846,4.846,0,0,1,4.844,4.844,4.846,4.846,0,0,1-4.844,4.844,4.846,4.846,0,0,1-4.844-4.844A4.846,4.846,0,0,1,25.989-418.593Zm-7.865-3.063c-.519.816-1.039,1.653-1.526,2.512s-.943,1.7-1.378,2.544c-.572-1.42-1.06-2.841-1.463-4.219C15.146-421.147,16.609-421.434,18.125-421.656Zm20.075.837c-.392,1.367-.88,2.777-1.431,4.187-.435-.848-.89-1.7-1.389-2.544s-1.007-1.675-1.526-2.48C35.359-421.434,36.811-421.158,38.2-420.819ZM15.3-434.5a2.291,2.291,0,0,0-1.128.285c-1.431.837-2.046,3.985-1.547,8.034.127.986.307,2.014.551,3.074a49.5,49.5,0,0,1,6.741-1.166,50.076,50.076,0,0,1,4.377-5.289c-3.455-3.19-6.709-4.939-8.9-4.939H15.3Zm21.327-.045h-.059c-2.2,0-5.448,1.759-8.9,4.971a51.7,51.7,0,0,1,4.409,5.3,51.367,51.367,0,0,1,6.731,1.155c.233-1.07.424-2.12.541-3.116.488-4.049-.138-7.2-1.579-8.024a2.441,2.441,0,0,0-1.119-.287ZM25.968-427.9a43.709,43.709,0,0,1,2.947,3.392c-.954-.042-1.929-.074-2.915-.074s-1.982.021-2.947.074A41.359,41.359,0,0,1,25.968-427.9Z" transform="translate(6 445.755)" fill="#202020" fill-rule="evenodd"/>
  </g>
</svg>
