<svg xmlns="http://www.w3.org/2000/svg" xmlns:xlink="http://www.w3.org/1999/xlink" width="64" height="64" viewBox="0 0 64 64">
  <defs>
    <clipPath id="clip-react">
      <rect width="64" height="64"/>
    </clipPath>
  </defs>
  <g id="react" clip-path="url(#clip-react)">
    <path id="path-react" d="M45.054-436.909h-.048c-3.587,0-8.284,2.557-13.032,6.992-4.748-4.409-9.445-6.94-13.032-6.94a5.829,5.829,0,0,0-2.948.744c-3.666,2.113-4.488,8.7-2.6,16.972C5.283-416.636,0-412.631,0-408.4s5.309,8.258,13.45,10.749c-1.879,8.3-1.044,14.9,2.635,17.011a5.735,5.735,0,0,0,2.935.731c3.587,0,8.284-2.557,13.032-6.992,4.748,4.409,9.445,6.94,13.032,6.94a5.817,5.817,0,0,0,2.948-.731c3.666-2.113,4.488-8.7,2.6-16.972C58.717-400.16,64-404.178,64-408.4s-5.309-8.258-13.45-10.749c1.879-8.3,1.044-14.9-2.635-17.011A5.69,5.69,0,0,0,45.054-436.909ZM17.52-383.162c-1.774-1.018-2.544-4.892-1.944-9.875.143-1.226.378-2.518.665-3.835a63.22,63.22,0,0,0,8.284,1.422,63.623,63.623,0,0,0,5.427,6.523c-4.253,3.953-8.245,6.118-10.958,6.118A3.114,3.114,0,0,1,17.52-383.162Zm30.943-9.94c.613,4.983-.144,8.858-1.9,9.888a2.9,2.9,0,0,1-1.5.339c-2.7,0-6.705-2.152-10.958-6.079a61.628,61.628,0,0,0,5.388-6.51,60.913,60.913,0,0,0,8.3-1.435A36.52,36.52,0,0,1,48.463-393.1Zm-16.437,2.113a53.8,53.8,0,0,1-3.627-4.174c1.174.052,2.374.091,3.587.091s2.439-.026,3.627-.091A50.911,50.911,0,0,1,32.026-390.989Zm9.014-12.223c-1.018,1.761-2.061,3.431-3.144,4.983-1.944.17-3.914.261-5.9.261s-3.94-.091-5.87-.248q-1.624-2.329-3.157-4.957-1.487-2.563-2.713-5.192c.809-1.748,1.722-3.5,2.7-5.205,1.018-1.761,2.061-3.431,3.144-4.983,1.944-.17,3.914-.261,5.9-.261s3.94.091,5.87.248q1.624,2.329,3.157,4.957,1.487,2.563,2.713,5.192C42.919-406.669,42.019-404.921,41.04-403.212Zm-18.72,4.54c-1.852-.274-3.64-.613-5.349-1.031.483-1.683,1.083-3.418,1.761-5.153.535,1.044,1.1,2.087,1.709,3.131S21.681-399.664,22.32-398.673Zm22.934-6.236c.7,1.748,1.3,3.5,1.8,5.192-1.709.417-3.509.77-5.375,1.044.639-1,1.278-2.035,1.879-3.092S44.719-403.865,45.254-404.908ZM10.5-401.8c-4.618-1.97-7.605-4.553-7.605-6.6s2.987-4.644,7.605-6.6c1.122-.483,2.348-.913,3.614-1.318a62.659,62.659,0,0,0,2.935,7.945,61.765,61.765,0,0,0-2.9,7.905C12.863-400.877,11.636-401.321,10.5-401.8Zm42.984,0c-1.122.483-2.348.913-3.614,1.318a62.657,62.657,0,0,0-2.935-7.945,61.766,61.766,0,0,0,2.9-7.905c1.291.4,2.518.848,3.666,1.331,4.618,1.97,7.605,4.553,7.605,6.6S58.1-403.76,53.486-401.8Zm-21.5-12.563a5.964,5.964,0,0,1,5.962,5.962,5.964,5.964,0,0,1-5.962,5.962,5.964,5.964,0,0,1-5.962-5.962A5.964,5.964,0,0,1,31.987-414.366Zm-9.68-3.77c-.639,1-1.278,2.035-1.879,3.092s-1.161,2.087-1.7,3.131c-.7-1.748-1.3-3.5-1.8-5.192C18.642-417.51,20.442-417.862,22.307-418.136Zm24.708,1.031c-.483,1.683-1.083,3.418-1.761,5.153-.535-1.044-1.1-2.087-1.709-3.131s-1.239-2.061-1.879-3.053C43.519-417.862,45.306-417.523,47.015-417.105ZM18.83-433.945a2.82,2.82,0,0,0-1.389.351c-1.761,1.031-2.518,4.905-1.9,9.888.157,1.213.378,2.479.678,3.783a60.918,60.918,0,0,1,8.3-1.435,61.631,61.631,0,0,1,5.388-6.51c-4.253-3.927-8.258-6.079-10.958-6.079H18.83ZM45.079-434h-.073c-2.713,0-6.705,2.165-10.958,6.118a63.63,63.63,0,0,1,5.427,6.523,63.22,63.22,0,0,1,8.284,1.422c.287-1.318.522-2.609.665-3.835.6-4.983-.17-8.858-1.944-9.875A3,3,0,0,0,45.1-434ZM31.961-425.82a53.8,53.8,0,0,1,3.627,4.174c-1.174-.052-2.374-.091-3.587-.091s-2.439.026-3.627.091A50.9,50.9,0,0,1,31.961-425.82Z" transform="translate(0 440.411)" fill="#202020" fill-rule="evenodd"/>
  </g>
</svg>
