<svg xmlns="http://www.w3.org/2000/svg" xmlns:xlink="http://www.w3.org/1999/xlink" width="64" height="64" viewBox="0 0 64 64">
  <defs>
    <clipPath id="clip-search">
      <rect width="64" height="64"/>
    </clipPath>
  </defs>
  <g id="search" clip-path="url(#clip-search)">
    <path id="path-search" d="M244.186-10.158l8.986,8.986a4,4,0,0,0,5.656,0,4,4,0,0,0,0-5.657l-8.985-8.986A22.889,22.889,0,0,0,254-29a23.011,23.011,0,0,0-23-23,23.011,23.011,0,0,0-23,23A23.011,23.011,0,0,0,231-6,22.886,22.886,0,0,0,244.186-10.158ZM231-44a15.007,15.007,0,0,1,15,15,15.007,15.007,0,0,1-15,15,15.007,15.007,0,0,1-15-15A15.007,15.007,0,0,1,231-44Z" transform="translate(-201.999 58)" fill-rule="evenodd"/>
  </g>
</svg>
