<svg xmlns="http://www.w3.org/2000/svg" xmlns:xlink="http://www.w3.org/1999/xlink" width="64" height="64" viewBox="0 0 64 64">
  <defs>
    <clipPath id="clip-search">
      <rect width="64" height="64"/>
    </clipPath>
  </defs>
  <g id="search" clip-path="url(#clip-search)">
    <path id="path-search" d="M213.317-14.441,226.879-.879a3,3,0,0,0,4.243,0,3,3,0,0,0,0-4.243L217.559-18.684a27.731,27.731,0,0,0,6.156-17.459A27.87,27.87,0,0,0,195.858-64,27.87,27.87,0,0,0,168-36.143,27.87,27.87,0,0,0,195.858-8.286,27.733,27.733,0,0,0,213.317-14.441ZM195.858-58a21.868,21.868,0,0,1,21.857,21.857,21.868,21.868,0,0,1-21.857,21.857A21.867,21.867,0,0,1,174-36.143,21.867,21.867,0,0,1,195.858-58Z" transform="translate(-168 64)" fill="#202020" fill-rule="evenodd"/>
  </g>
</svg>
