<svg xmlns="http://www.w3.org/2000/svg" xmlns:xlink="http://www.w3.org/1999/xlink" width="64" height="64" viewBox="0 0 64 64">
  <defs>
    <clipPath id="clip-sun">
      <rect width="64" height="64"/>
    </clipPath>
  </defs>
  <g id="sun" clip-path="url(#clip-sun)">
    <path id="path-sun" d="M546-8a4,4,0,0,1,4,4,4,4,0,0,1-4,4,4,4,0,0,1-4-4A4,4,0,0,1,546-8Zm-12.728-5.272a4,4,0,0,1,0,5.657,4,4,0,0,1-5.657,0,4,4,0,0,1,0-5.657A4,4,0,0,1,533.272-13.272Zm25.456,0a4,4,0,0,1,5.657,0,4,4,0,0,1,0,5.657,4,4,0,0,1-5.657,0A4,4,0,0,1,558.728-13.272ZM546-42a16.007,16.007,0,0,0-16,16,16.007,16.007,0,0,0,16,16,16.007,16.007,0,0,0,16-16A16.007,16.007,0,0,0,546-42Zm0,8a8,8,0,0,1,8,8,8,8,0,0,1-8,8,8,8,0,0,1-8-8A8,8,0,0,1,546-34Zm-26,8a4,4,0,0,1,4-4,4,4,0,0,1,4,4,4,4,0,0,1-4,4A4,4,0,0,1,520-26Zm44,0a4,4,0,0,1,4-4,4,4,0,0,1,4,4,4,4,0,0,1-4,4A4,4,0,0,1,564-26Zm.385-18.385a4,4,0,0,1,0,5.657,4,4,0,0,1-5.657,0,4,4,0,0,1,0-5.657A4,4,0,0,1,564.385-44.385Zm-36.77,0a4,4,0,0,1,5.657,0,4,4,0,0,1,0,5.657,4,4,0,0,1-5.657,0A4,4,0,0,1,527.615-44.385ZM546-52a4,4,0,0,1,4,4,4,4,0,0,1-4,4,4,4,0,0,1-4-4A4,4,0,0,1,546-52Z" transform="translate(-514 58)" fill-rule="evenodd"/>
  </g>
</svg>
