<svg xmlns="http://www.w3.org/2000/svg" xmlns:xlink="http://www.w3.org/1999/xlink" width="64" height="64" viewBox="0 0 64 64">
  <defs>
    <clipPath id="clip-sun">
      <rect width="64" height="64"/>
    </clipPath>
  </defs>
  <g id="sun" clip-path="url(#clip-sun)">
    <path id="path-sun" d="M530-6v2a3,3,0,0,0,3,3,3,3,0,0,0,3-3V-6a3,3,0,0,0-3-3A3,3,0,0,0,530-6Zm19.971-5.787,1.414,1.414a3,3,0,0,0,4.242,0,3,3,0,0,0,0-4.243l-1.414-1.414a3,3,0,0,0-4.242,0A3,3,0,0,0,549.971-11.787Zm-38.184-4.243-1.414,1.414a3,3,0,0,0,0,4.243,3,3,0,0,0,4.242,0l1.414-1.414a3,3,0,0,0,0-4.243A3,3,0,0,0,511.787-16.029ZM533-53a20.01,20.01,0,0,0-20,20,20.01,20.01,0,0,0,20,20,20.01,20.01,0,0,0,20-20A20.01,20.01,0,0,0,533-53Zm0,6a14.007,14.007,0,0,1,14,14,14.007,14.007,0,0,1-14,14,14.007,14.007,0,0,1-14-14A14.007,14.007,0,0,1,533-47ZM506-36h-2a3,3,0,0,0-3,3,3,3,0,0,0,3,3h2a3,3,0,0,0,3-3A3,3,0,0,0,506-36Zm56,0h-2a3,3,0,0,0-3,3,3,3,0,0,0,3,3h2a3,3,0,0,0,3-3A3,3,0,0,0,562-36ZM551.385-55.627l-1.414,1.414a3,3,0,0,0,0,4.243,3,3,0,0,0,4.242,0l1.414-1.414a3,3,0,0,0,0-4.243A3,3,0,0,0,551.385-55.627Zm-41.012,4.243,1.414,1.414a3,3,0,0,0,4.242,0,3,3,0,0,0,0-4.243l-1.414-1.414a3,3,0,0,0-4.242,0A3,3,0,0,0,510.373-51.385ZM530-62v2a3,3,0,0,0,3,3,3,3,0,0,0,3-3v-2a3,3,0,0,0-3-3A3,3,0,0,0,530-62Z" transform="translate(-501 65)" fill="#202020" fill-rule="evenodd"/>
  </g>
</svg>
