<svg xmlns="http://www.w3.org/2000/svg" xmlns:xlink="http://www.w3.org/1999/xlink" width="64" height="64" viewBox="0 0 64 64">
  <defs>
    <clipPath id="clip-twitter">
      <rect width="64" height="64"/>
    </clipPath>
  </defs>
  <g id="twitter" clip-path="url(#clip-twitter)">
    <path id="path-twitter" d="M58.448,14.444c.039.564.039,1.128.039,1.7,0,17.35-13.208,37.36-37.36,37.36v-.01A37.172,37.172,0,0,1,1,47.6a26.71,26.71,0,0,0,3.125.19,26.366,26.366,0,0,0,16.307-5.632A13.147,13.147,0,0,1,8.166,33.044a13.088,13.088,0,0,0,5.928-.226A13.132,13.132,0,0,1,3.561,19.948v-.166A13.047,13.047,0,0,0,9.52,21.425,13.147,13.147,0,0,1,5.456,3.893,37.267,37.267,0,0,0,32.518,17.611,13.143,13.143,0,0,1,54.894,5.635a26.348,26.348,0,0,0,8.338-3.188A13.179,13.179,0,0,1,57.46,9.709,26.113,26.113,0,0,0,65,7.642,26.675,26.675,0,0,1,58.448,14.444Z" transform="translate(-1 4.501)" fill="#202020"/>
  </g>
</svg>
