<svg xmlns="http://www.w3.org/2000/svg" xmlns:xlink="http://www.w3.org/1999/xlink" width="64" height="64" viewBox="0 0 64 64">
  <defs>
    <clipPath id="clip-twitter">
      <rect width="64" height="64"/>
    </clipPath>
  </defs>
  <g id="twitter" clip-path="url(#clip-twitter)">
    <path id="path-twitter" d="M47.676,12.016c.032.458.032.917.032,1.379,0,14.1-10.732,30.355-30.355,30.355v-.008A30.2,30.2,0,0,1,1,38.959a21.7,21.7,0,0,0,2.539.154,21.422,21.422,0,0,0,13.25-4.576,10.682,10.682,0,0,1-9.967-7.409,10.634,10.634,0,0,0,4.817-.184A10.669,10.669,0,0,1,3.081,16.488v-.135a10.6,10.6,0,0,0,4.842,1.335,10.682,10.682,0,0,1-3.3-14.245A30.28,30.28,0,0,0,26.608,14.589a10.679,10.679,0,0,1,18.18-9.73,21.408,21.408,0,0,0,6.775-2.59,10.708,10.708,0,0,1-4.69,5.9A21.217,21.217,0,0,0,53,6.49,21.673,21.673,0,0,1,47.676,12.016Z" transform="translate(5 9.376)" fill="#202020"/>
  </g>
</svg>
