<svg xmlns="http://www.w3.org/2000/svg" xmlns:xlink="http://www.w3.org/1999/xlink" width="64" height="64" viewBox="0 0 64 64">
  <defs>
    <clipPath id="clip-wantendly">
      <rect width="64" height="64"/>
    </clipPath>
  </defs>
  <g id="wantendly" clip-path="url(#clip-wantendly)">
    <path id="path-wantedly" d="M690.183-15.779c-.457-.3-1.765-2.038-5.346-10.617-.225-.537-.435-1-.633-1.4l-.733-1.771-6.3-15.2H664.582l12.607,30.4,5.8,14.044a.523.523,0,0,0,.482.321.522.522,0,0,0,.481-.321l6.331-15.146A.266.266,0,0,0,690.183-15.779Zm-23.593,0c-.456-.3-1.765-2.035-5.346-10.614-.225-.54-.435-1-.633-1.4l-.732-1.771-6.3-15.2H640.969l12.606,30.4L659.4-.321A.524.524,0,0,0,659.88,0a.523.523,0,0,0,.482-.321l6.327-15.146A.265.265,0,0,0,666.59-15.779Zm30.779-29.4a7.6,7.6,0,0,1,7.6,7.6,7.6,7.6,0,0,1-7.6,7.6,7.6,7.6,0,0,1-7.6-7.6A7.6,7.6,0,0,1,697.369-45.182Z" transform="translate(-640.969 54.591)" fill="#202020" fill-rule="evenodd"/>
  </g>
</svg>
