<svg xmlns="http://www.w3.org/2000/svg" xmlns:xlink="http://www.w3.org/1999/xlink" width="64" height="64" viewBox="0 0 64 64">
  <defs>
    <clipPath id="clip-wantendly">
      <rect width="64" height="64"/>
    </clipPath>
  </defs>
  <g id="wantendly" clip-path="url(#clip-wantendly)">
    <path id="path-wantedly" d="M680.955-21.292c-.371-.244-1.434-1.656-4.344-8.626-.183-.437-.353-.812-.514-1.137l-.6-1.439-5.121-12.35H660.155l10.243,24.7,4.714,11.411a.425.425,0,0,0,.392.26.424.424,0,0,0,.391-.26l5.144-12.306A.216.216,0,0,0,680.955-21.292Zm-19.169,0c-.371-.244-1.434-1.654-4.344-8.624-.183-.439-.353-.815-.514-1.139l-.595-1.439-5.122-12.35H640.969l10.242,24.7,4.731,11.411a.426.426,0,0,0,.392.26.425.425,0,0,0,.392-.26l5.141-12.306A.215.215,0,0,0,661.786-21.292Zm25.008-23.89a6.178,6.178,0,0,1,6.175,6.175,6.178,6.178,0,0,1-6.175,6.175,6.178,6.178,0,0,1-6.175-6.175A6.178,6.178,0,0,1,686.794-45.182Z" transform="translate(-634.969 58.827)" fill="#202020" fill-rule="evenodd"/>
  </g>
</svg>
