<svg xmlns="http://www.w3.org/2000/svg" xmlns:xlink="http://www.w3.org/1999/xlink" width="64" height="64" viewBox="0 0 64 64">
  <defs>
    <clipPath id="clip-zenn">
      <rect width="64" height="64"/>
    </clipPath>
  </defs>
  <g id="zenn" clip-path="url(#clip-zenn)">
    <path id="path-zenn" d="M252.673-215.761h13.291a2.15,2.15,0,0,0,1.72-.938l36.589-60.122a1.128,1.128,0,0,0-1.016-1.72H290.669a1.677,1.677,0,0,0-1.485.86l-37.137,60.826A.752.752,0,0,0,252.673-215.761Zm45.814-.938,17.279-27.755a1.272,1.272,0,0,0-1.1-1.954H302.162a1.379,1.379,0,0,0-1.173.625L283.242-217.4a1.075,1.075,0,0,0,.938,1.642h12.744A1.719,1.719,0,0,0,298.487-216.7Z" transform="translate(-251.969 279.151)" fill="#202020"/>
  </g>
</svg>
