<svg xmlns="http://www.w3.org/2000/svg" xmlns:xlink="http://www.w3.org/1999/xlink" width="64" height="64" viewBox="0 0 64 64">
  <defs>
    <clipPath id="clip-zenn">
      <rect width="64" height="64"/>
    </clipPath>
  </defs>
  <g id="zenn" clip-path="url(#clip-zenn)">
    <path id="path-zenn" d="M252.541-227.532h10.8a1.747,1.747,0,0,0,1.4-.762l29.728-48.849a.917.917,0,0,0-.826-1.4H283.413a1.363,1.363,0,0,0-1.207.7l-30.174,49.421A.611.611,0,0,0,252.541-227.532Zm37.224-.762L303.8-250.845a1.033,1.033,0,0,0-.89-1.588H292.751a1.12,1.12,0,0,0-.953.508l-14.419,23.059a.873.873,0,0,0,.762,1.334h10.354A1.4,1.4,0,0,0,289.765-228.295Z" transform="translate(-245.969 285.037)" fill="#202020"/>
  </g>
</svg>
